<svg viewBox="0 0 575 575" class="roots-wrapper"><g transform="rotate(0 0 0)"><svg viewBoxSize="575" data-root-id="5521210222801" xmlns="http://www.w3.org/2000/svg" xmlns:xlink="http://www.w3.org/1999/xlink" version="1.1" id="Layer_1" x="275.9999658198481" y="164.19043092819658" viewBox="492.7572326660156 733.6320190429688 3691.48876953125 3795.865966796875" enable-background="new 0 0 5000.003 5000.003" xml:space="preserve" height="142.33947545746256" width="138.42543424715348" preserveAspectRatio="xMinYMin" zoom="1" editorType="buyer" data-layer-role="icon" style="position: absolute; height: 142.339px; width: 138.425px; top: 164.19px; left: 276px;"><path id="_2026380728480" fill="#F3EDE1" d="M624.723,3682.648c-58.103-49.447-117.7-107.152-129.754-182.49    c-11.454-71.535,23.217-142.572,66.2-200.891c116.957-158.545,312.449-291.586,305.855-488.49    c-5.689-170.252-164.87-293.527-222.075-453.964c-59.299-166.428,9.331-369.272,157.531-465.443    c281.896-182.98,655.846,42.048,988.199-7.828c233.599-35.07,433.516-205.882,669.094-223.317    c149.128-11.025,301.937,44.746,408.888,149.236c57.973,56.622,102.803,126.364,165.637,177.521    c115.086,93.694,273.385,111.957,421.814,111.236c148.408-0.713,300.029-16.216,442.832,24.184    c142.805,40.406,278.209,155.584,285.025,303.831c6.117,132.729-89.938,248.735-195.877,328.934    c-105.932,80.178-228.484,140.979-316.674,240.369c-88.158,99.383-132.047,257.482-52.996,364.273    c37.277,50.32,95.043,80.691,141.592,122.576c187.32,168.566,143.5,494.779-31.23,676.34    c-371.541,386.094-1064.992,334.875-1542.848,232.064C1615.774,4268.121,1073.696,4064.646,624.723,3682.648L624.723,3682.648z" name="Layer %{number}" zoom="1" data-layer-id="5705465222801" style="fill: rgb(243, 237, 225); fill-opacity: 1;"></path><path id="_2026380728480" fill="#6F5B44" d="M4009.517,4378.935c0,83.145-676.885,150.563-1511.836,150.563    c-834.953,0-1511.828-67.418-1511.828-150.563C985.853,4182.273,4009.517,4182.275,4009.517,4378.935z" name="Layer %{number}" zoom="1" data-layer-id="2639887222801" style="fill: rgb(111, 91, 68); fill-opacity: 1;"></path><path id="_2026380728480" fill="#BDC8B3" d="M2545.125,2717.689c-43.957-27.09-84.654-57.475-130.09-83.008    c-74.396-41.801-161.051-69.941-251.196-81.617c-145.34-18.809-305.126,9.023-409.777,90.727    c-104.65,81.703-138.985,220.795-59.729,318.676c89.485,110.492,277.848,136.547,444.09,141.768    c211.885,6.633,729.16,17.59,884.966-129.738c85.773-81.111-5.582-92.068-109.244-121.764    C2781.109,2814.603,2659.582,2788.257,2545.125,2717.689L2545.125,2717.689z" name="Layer %{number}" zoom="1" data-layer-id="8497002622801" style="fill: rgb(189, 200, 179); fill-opacity: 1;"></path><path id="_2026380728480" fill="#D8E3D4" d="M3223.488,3920.572c-2.945-104.891-22.809-192.9-25.668-297.768    c-2.838-103.508-12.391-220.488-15.227-323.994c-2.313-85.744-15.363-169.705-34.207-253.91    c-17.779-79.484-30.84-141.09-97.994-189.391c-58.631-42.188-160.846-39.322-228.471-20.4    c-59.123,16.58-117.357,36.105-175.531,55.701c-126.703,42.658-253.521,86.949-384.676,113.965    c-131.557,27.092-273.363,40.541-403.761,0c-67.835-21.096-128.729-55.477-182.271-101.992    c-10.526-9.137-20.391-18.822-29.774-28.916c-5.921,6.445-10.024,15.195-10.867,26.264    c-26.211,347.344-11.833,697.455-4.352,1045.275c1.067,48.736,2.11,97.471,3.177,146.229c0.541,25.268,1.809,50.143,4.715,75.225    c1.384,11.795,4.313,22.842,7.892,33.678c0,2.566,0.047,5.193,0.047,7.76c-10.845,16.557-2.25,37.303,11.881,51    c17.692,17.168,40.757,22.98,63.66,29.852c27.146,8.139,54.408,15.807,81.825,22.926    c107.588,28.051,217.486,47.553,327.888,60.592c220.64,26.135,444.11,21.867,663.87-10.334    c40.049-5.861,393.512-77.662,398.521-90.807c15.012,3.131,27.176-19.008,30.691-36.924    c10.182-52.182,4.484-105.818,2.992-158.773C3226.394,4024.08,3224.917,3972.345,3223.488,3920.572L3223.488,3920.572z" name="Layer %{number}" zoom="1" data-layer-id="9149534522801" style="fill: rgb(216, 227, 212);"></path><path id="_2026380728480" fill="#6F5B44" d="M3838.207,3653.802c-38.023,18.785-77.816,30.24-119.771,35.883c-20.785,2.859-41.887,3.688-62.85,2.883    c-8.908-0.291-17.84-1.418-26.789-2.385c26.246-28.207,54.975-54.354,87.008-77.432c83.752-60.426,183.027-91.471,284.441-105.395    C3961.642,3570.597,3905.019,3620.849,3838.207,3653.802z M3349.707,3732.968c-23.262-18.064-45.551-38.896-61.59-63.777    c-18.738-29.012-26.438-61.346-26.613-95.764c-0.068-18.555,1.549-37.119,3.105-55.65c0.92-10.871,1.863-21.736,2.791-32.623    c0.475-5.307,0-13.924,0.758-21.439c6.863,4.84,16.018,13.098,18.447,15.053c10.105,8.365,19.576,17.564,28.393,27.264    c16.762,18.494,30.93,38.965,42.898,60.871c24.727,45.307,39.303,95.611,46.119,146.629c2.607,19.635,4.025,39.457,4.385,59.367    C3389.208,3759.197,3368.363,3747.482,3349.707,3732.968z M3546.189,3480.093c-12.734-7.178-24.588-15.75-35.322-25.672    c-19.996-18.4-36.129-40.268-48.342-64.512c-26.477-52.781-30.523-112.234-22.881-169.869    c78.045,54.285,104.16,168.813,107.895,260.773C3547.064,3480.568,3546.658,3480.361,3546.189,3480.093z M3629.195,4095.148    c-37.93-5.482-75.715-25.418-111.26-39.027c-19.705-7.514-39.395-15.051-59.053-22.564c17.566-11.004,35.723-21.031,54.438-29.871    c77.945-36.619,170.404-50.26,252.338-19.391C3759.423,4052.119,3699.927,4105.392,3629.195,4095.148L3629.195,4095.148z     M3791.029,3952.458c-89.684-34.326-190.623-22.297-276.896,16.355c-41.666,18.686-81.41,44.146-116.842,72.209    c-1.801,1.396-3.604,2.814-5.359,4.232c14.307-22.787,28.238-45.781,42.07-68.791c51.563-85.689,101.232-174.752,164.764-251.908    c36.594,13.725,86.516,7.107,122.822,1.795c44.859-6.541,89.645-21.814,130.344-41.633    c82.377-40.162,151.734-106.676,192.227-189.1c4.814-9.791-0.676-26.1-13.971-24.635    c-101.123,11.041-202.055,35.209-290.223,87.691c-66.475,39.609-123.135,93.371-171.594,153.307    c-10.213,12.621-20.111,25.416-29.74,38.422c6.861-21.576,11.875-43.912,16.645-65.732    c13.748-63.639,22.543-128.543,22.158-193.783c-0.582-113.285-30.975-262.613-142.596-318.605    c-10.58-5.307-25.717-1.328-28.506,11.676c-15.949,73.76-12.645,153.377,20.947,221.969c14.215,29.012,34.164,56.033,58.24,77.607    c15.633,13.971,39.096,34.91,62.266,39.004c-1.418,53.271-9.002,106.383-19.566,158.537    c-21.578,106.641-55.275,163.047-108.166,249.529c8.445-33.557,14.045-67.771,16.809-102.256    c6.297-78.865-2.023-160.078-30.799-234.137c-13.342-34.234-30.73-66.521-53.357-95.533    c-20.141-25.809-48.664-56.539-79.324-69.918c-43.281-18.877-39.258,48.342-41.389,72.34c-4.094,46.371-9.99,94.844,4.922,139.998    c12.805,38.711,37.816,71.582,67.871,98.686c29.986,26.973,65.662,54.689,103.033,70.592c-1.234,26.836-4.348,53.656-9.023,79.947    c-5.191,29.158-12.461,57.957-21.752,86.072c-18.66,56.383-38.852,87.516-72.664,136.188    c-18.201,26.143-79.873,113.361-114.98,164.104c-29.605,42.787-39.457,60.4,23.824-0.605c7.906-7.623,15.684-17.434,26.021-27.58    c64.24-63.045,139.947-156.777,164.318-175.936c4.977-3.941,10.037-7.789,15.189-11.584c0.246,0.244,0.49,0.443,0.783,0.721    c9.652,6.922,23.621,10.143,34.67,14.328c23.869,8.994,47.807,17.996,71.674,27.02c42.646,16.057,85.682,37.34,132.43,33.246    c84.809-7.398,149.236-79.502,147.189-164.67C3805.251,3962.134,3799.517,3955.679,3791.029,3952.458L3791.029,3952.458z" name="Layer %{number}" zoom="1" data-layer-id="1232616322801" style="fill: rgb(111, 91, 68); fill-opacity: 1;"></path><path id="_2026380728480" fill="#BDC8B3" d="M3547.539,3480.814c-0.475-0.246-0.881-0.453-1.35-0.721c-12.734-7.178-24.59-15.75-35.322-25.672    c-19.996-18.4-36.129-40.268-48.344-64.512c-26.475-52.781-30.523-112.234-22.879-169.869    c78.045,54.285,104.16,168.811,107.895,260.771V3480.814z M3408.4,3772.898c-19.191-13.701-40.037-25.416-58.693-39.93    c-23.262-18.064-45.551-38.896-61.59-63.777c-18.74-29.012-26.438-61.346-26.613-95.764c-0.07-18.555,1.549-37.119,3.105-55.65    c0.92-10.871,1.863-21.736,2.789-32.623c0.477-5.307,0-13.924,0.76-21.439c6.863,4.84,16.018,13.098,18.447,15.053    c10.105,8.365,19.574,17.564,28.393,27.264c16.76,18.494,30.93,38.965,42.898,60.871c24.727,45.307,39.303,95.611,46.119,146.629    C3406.621,3733.166,3408.041,3752.988,3408.4,3772.898z M3765.658,3984.294c-6.234,67.824-65.732,121.096-136.463,110.854    c-37.93-5.482-75.715-25.418-111.26-39.027c-19.705-7.514-39.395-15.051-59.053-22.564c17.564-11.004,35.721-21.031,54.438-29.871    C3591.265,3967.066,3683.724,3953.425,3765.658,3984.294L3765.658,3984.294z M4000.246,3507.357    c-38.605,63.24-95.229,113.492-162.041,146.445c-38.021,18.785-77.814,30.24-119.77,35.883    c-20.787,2.859-41.887,3.688-62.85,2.883c-8.91-0.291-17.842-1.418-26.789-2.385c26.244-28.207,54.975-54.354,87.008-77.432    C3799.554,3552.326,3898.83,3521.281,4000.246,3507.357L4000.246,3507.357z" name="Layer %{number}" zoom="1" data-layer-id="5338038722801" style="fill: rgb(189, 200, 179); fill-opacity: 1;"></path><path id="_2026380728480" fill="#6F5B44" d="M1237.707,4034.636c-13.563,12.215-30.324,20.496-46.472,28.73    c-37.631,19.184-76.888,34.824-117.408,46.785c-37.049,10.918-75.808,20.25-114.411,23.285    c-25.647,2.07-53.403,1.441-76.934-9.262c71.037-55.305,156.205-90.412,245.36-103.799c42.07-6.326,85.39-7.354,127.844-3.352    c-5.804,4.516-10.281,10.703-17.979,17.613V4034.636z M1038.488,3766.896c-17.527,4.723-35.293,8.725-53.158,12.074    c-36.58,6.779-73.675,10.33-110.86,10.828c-68.407,0.957-136.593-9.9-177.084-64.729c117.471-23.553,240.209-7.154,350.595,38.721    C1044.63,3765.001,1041.455,3766.082,1038.488,3766.896z M1458.87,3318.527c-20.272,42.271-46.794,81.412-79.571,115.041    c-15.61,16.025-32.509,31.029-50.681,44.117c-1.802,1.287-3.558,2.545-5.352,3.758c10.703-83.344,31.067-165.477,60.242-244.258    c17.749-47.828,39.026-94.33,63.484-139.115c11.003-20.203,21.706-42.406,35.769-60.67c1.211-1.643,2.407-3.268,3.664-4.908    c0.047-0.045,0.084-0.084,0.139-0.084c0.628,1.84,1.211,3.734,1.748,5.689c3.128,11.248,5.421,22.787,7.406,34.303    C1509.797,3155.099,1494.998,3243.121,1458.87,3318.527L1458.87,3318.527z M1148.383,3227.035    c-5.405-49.938-8.664-100.127-9.744-150.295c-2.63-118.637,6.861-237.232,28.774-353.762    c59.951,64.375,80.829,156.682,73.093,244.119c-5.222,58.471-23.715,115.992-46.793,169.639    C1180.464,3167.558,1163.947,3197.14,1148.383,3227.035L1148.383,3227.035z M1016.153,3404.24    c-28.845-5.09-57.528-11.117-85.889-18.563c-57.459-15.004-113.606-35.791-164.425-66.904    c-79.993-48.926-148.7-127.254-167.484-220.795c128.296,17.189,246.15,84.18,339.6,172.299    c45.467,42.807,86.41,90.406,123.458,140.664C1046.385,3408.312,1030.997,3406.894,1016.153,3404.24L1016.153,3404.24z     M1150.63,3475.8c-15.411-25.963-32.104-51.18-49.179-75.607c-42.308-60.719-89.484-118.131-144.175-168.137    c-106.131-97.113-238.338-166.402-383.127-178.35c-10.274-0.857-22.158,9.945-20.985,20.564    c12.283,114.25,84.294,209.838,178.548,272.02c52.774,34.84,112.794,58.662,173.465,75.652    c31.789,8.865,63.983,15.834,96.416,21.707c28.821,5.223,60.272,13.992,89.493,9.408c31.036,46.053,59.461,93.975,92.119,138.873    l0.025,0.08c30.969,97.92,69.979,193.309,116.704,284.727l-0.046-0.086c-11.923-10.619-24.183-20.832-36.512-30.73    c-53.809-43.152-111.827-80.92-174.676-109.557c-133.764-60.986-285.561-82.178-428.993-45.33    c-13.548,3.467-18.991,18.225-13.118,30.24c63.01,129.232,228.354,120.307,348.823,97.965c17.903-3.35,35.63-7.352,53.203-12.084    c15.588-4.225,35.791-7.238,49.669-15.672c1.304-0.813,2.515-1.641,3.597-2.521c50.841,26.252,99.022,57.949,143.347,94.055    c25.256,20.557,49.063,42.652,73.262,64.381c11.255,10.121,22.656,20.043,33.881,30.195c2.5,2.314,5.015,4.723,7.514,7.191    c2.884,4.861,5.781,9.676,8.757,14.422c-17.712-6.096-34.266-10.145-42.592-12.084c-57.159-13.088-116.458-16.959-174.791-11.285    c-117.448,11.516-229.099,57.787-318.423,135.289c-7.989,6.932-8.487,22.449-0.299,29.465    c62.428,53.656,153.131,35.545,225.947,16.938c43.151-10.996,85.307-26.092,125.774-44.609    c37.478-17.135,78.29-35.875,101.752-71.375c4.433-6.746,3.083-14.26-0.475-20.67c20.356,3.258,40.452,7.912,60.356,13.334    c13.295,3.604,40.629,6.523,55.726,16.83c31.919,48.25,66.246,94.904,102.872,139.742c19.82,24.299,40.36,47.33,61.637,69.58    c25.265,26.346,51.609,51.471,79.365,76.1c13.233,11.791,32.172-6.227,19.819-19.383c-18.47-19.76-36.626-39.779-54.345-60.09    c-115.968-132.566-216.188-277.602-293.06-436.084c7.023-21.484,2.431-43.098,0.406-65.838    c-2.247-25.74-2.247-51.363-3.128-77.119c-1.703-49.406-1.166-98.531,2.883-147.756c0.046-0.199,0.046-0.406,0.092-0.605    c9.783-1.848,19.114-7.33,28.277-13.77c20.602-14.508,40.038-30.57,57.902-48.389c32.908-32.863,60.939-71.129,82.585-112.273    c44.294-84.225,63.723-180.986,51.601-275.576c-4.478-34.664-18.31-121.25-72.41-84.133    c-18.945,13.002-29.986,37.928-41.15,57.205c-15.318,26.391-29.488,53.447-42.538,81.051    c-48.933,103.707-81.955,214.301-97.972,327.791c-8.795,62.266-12.552,124.984-10.658,187.842    c0.967,32.41,5.26,63.684,9.898,95.672c0.081,0.408,0.126,0.832,0.17,1.242c-0.047-0.111-0.125-0.236-0.17-0.369    c-61.055-143.002-103.615-294.238-126.318-448.291c31.988-46.348,55.749-100.494,77.187-151.758    c24.589-58.809,43.189-120.6,47.852-184.422c7.76-107.463-25.938-224.506-113.338-292.967c-11.248-8.793-31.113-8.119-34.71,9.025    c-42.852,204.033-48.073,414.531-18.354,620.613c-0.499,1.418-1.036,2.791-1.534,4.232c-2.093,5.934,0.292,11.738,4.501,15.787    c3.197,20.363,6.701,40.744,10.55,61.008C1135.672,3411.525,1142.732,3443.765,1150.63,3475.8L1150.63,3475.8z" name="Layer %{number}" zoom="1" data-layer-id="1303851422801" style="fill: rgb(111, 91, 68); fill-opacity: 1;"></path><path id="_2026380728480" fill="#BDC8B3" d="M1255.687,4017.025c-5.804,4.516-10.281,10.703-17.979,17.611c-13.563,12.215-30.324,20.496-46.472,28.73    c-37.631,19.184-76.888,34.824-117.408,46.785c-37.049,10.918-75.808,20.25-114.411,23.285    c-25.647,2.07-53.403,1.441-76.934-9.262c71.037-55.305,156.205-90.412,245.36-103.799    C1169.913,4014.05,1213.232,4013.023,1255.687,4017.025L1255.687,4017.025z M1047.98,3763.791    c-3.352,1.211-6.525,2.291-9.492,3.105c-17.527,4.723-35.293,8.725-53.158,12.074c-36.58,6.779-73.675,10.33-110.86,10.828    c-68.408,0.957-136.593-9.9-177.084-64.729C814.856,3701.517,937.594,3717.916,1047.98,3763.791z M1458.87,3318.527    c-20.272,42.271-46.794,81.412-79.571,115.041c-15.61,16.025-32.509,31.029-50.681,44.117c-1.802,1.287-3.558,2.545-5.352,3.758    c10.703-83.344,31.067-165.477,60.241-244.258c17.75-47.828,39.027-94.33,63.485-139.115    c11.003-20.203,21.706-42.406,35.768-60.67c1.212-1.643,2.408-3.268,3.665-4.908c0.046-0.045,0.084-0.084,0.139-0.084    c0.628,1.84,1.211,3.734,1.748,5.689c3.128,11.248,5.421,22.787,7.406,34.303    C1509.796,3155.099,1494.998,3243.121,1458.87,3318.527L1458.87,3318.527z M1240.506,2967.097    c-5.222,58.471-23.715,115.992-46.794,169.639c-13.249,30.822-29.765,60.404-45.329,90.299    c-5.405-49.938-8.664-100.127-9.744-150.295c-2.63-118.637,6.861-237.232,28.774-353.762    C1227.364,2787.353,1248.242,2879.66,1240.506,2967.097L1240.506,2967.097z M1061.413,3410.941    c-15.028-2.629-30.416-4.047-45.26-6.701c-28.845-5.09-57.528-11.117-85.89-18.563c-57.458-15.004-113.606-35.791-164.425-66.904    c-79.992-48.926-148.699-127.254-167.484-220.795c128.297,17.189,246.151,84.18,339.6,172.299    C983.421,3313.083,1024.364,3360.683,1061.413,3410.941L1061.413,3410.941z" name="Layer %{number}" zoom="1" data-layer-id="2239660222801" style="fill: rgb(189, 200, 179); fill-opacity: 1;"></path><path id="_2026380728480" fill="#6F5B44" d="M2783.564,2812.921c-30.473-6.029-61.127-11.467-90.783-20.814c-45.658-14.422-88.625-36.404-129.73-60.74    c-79.792-47.199-153.759-104.766-239.126-142.061c-87.468-38.221-182.328-48.617-277.104-46.885    c-82.246,1.512-166.878,13.924-240.638,52.238c-150.21,77.99-190.808,245.789-201.043,401.842    c-13.258,201.787-10.459,405.959-6.687,608.039c2.231,118.758,6.433,237.486,12.62,356.107    c3.021,57.926,6.502,115.83,10.466,173.709c2.07,30.301,4.271,60.633,6.609,90.912c1.058,13.693,1.441,27.801,3.804,41.326    c2.606,14.912,9.154,23.707,17.703,36.143c2.315,3.359,8.257,4.639,10.374,0.092c4.762-10.166,10.144-19.475,11.608-30.684    c1.304-9.852-0.03-19.996-0.729-29.895c-1.886-27.557-4.201-55.098-6.157-82.652c-3.488-49.6-6.662-99.23-9.477-148.854    c-5.773-102.059-10.098-204.172-12.95-306.346c-5.766-205.721-5.604-411.604,0.515-617.309    c1.816-61.057,4.025-128.014,15.046-192.508c6.48,10.512,14.564,20.109,23.374,28.404c26.184,24.672,58.739,42.943,91.355,57.566    c35.116,15.748,72.326,19.52,110.025,24.582c1.288,0.16,1.327-1.688,0.3-2.088c-30.057-11.699-56.47-29.787-84.793-44.838    c-25.962-13.809-52.505-27.939-76.374-45.26c-20.824-15.119-44.271-35.744-48.901-62.426c-1.11-6.408-1.269-12.932-0.676-19.463    c5.631-19.521,12.431-38.514,20.64-56.727c2.711-4.563,5.525-8.924,8.336-13.027c0.733-1.072,0.139-2.188-0.8-2.668    c20.043-39.244,47.416-74.271,85.002-102.229c65.194-48.504,148.431-66.438,228.132-71.137    c91.87-5.398,188.148,0.16,274.581,33.881c94.124,36.734,173.756,101.545,260.413,151.982    c35.643,20.738,78.658,44.229,123.383,59.42c-36.643,8.064-72.859,18.217-108.609,30.133    c-88.226,29.404-173.142,67.916-260.902,98.756c-42.722,15.004-85.236,28.729-129.753,37.461    c-48.097,9.424-96.739,12.459-145.349,17.703c-3.481,0.385-5.13,5.943-0.92,6.725c72.433,13.564,146.13-3.871,216.746-19.773    c76.014-17.121,149.328-43.711,223.202-68.139c74.081-24.475,148.561-49.854,225.159-65.219    c84.699-16.982,171.471-21.705,257.467-13.539c34.395,3.258,71.721,7.307,102.488,24.342    c35.346,19.521,47.445,54.439,57.299,91.441c22.449,84.295,35.881,170.811,44.094,257.582    c16.553,175.037,16.799,351.736,21.867,527.363c2.852,99.369,5.711,198.705,8.572,298.074    c1.479,51.018,2.943,102.059,4.432,153.084c0.561,19.684,2.385,39.932-0.477,59.521c-2.545,17.527-0.918,35.699-15.096,48.619    c-3.352,3.037-1.027,9.959,3.826,9.516c28.207-2.615,48.096-25.041,52.145-52.375c5.92-40.039,0.582-82.494-0.582-122.762    c-2.723-95.15-5.467-190.311-8.189-285.492c-5.398-187.656-6.631-376.041-19.191-563.43    c-5.957-89.217-15.725-178.457-33.744-266.125c-15.449-75.27-29.426-163.389-107.732-197.602    c-34.488-15.074-72.096-19.842-109.26-23.377c-44.455-4.248-89.262-5.084-133.848-2.537    C2804.843,2811.113,2794.189,2811.921,2783.564,2812.921L2783.564,2812.921z" name="Layer %{number}" zoom="1" data-layer-id="5866349422801" style="fill: rgb(111, 91, 68); fill-opacity: 1;"></path><path id="_2026380728480" fill="#6F5B44" d="M2316.364,2479.949c-0.223,0-0.223,0.337,0,0.337C2316.563,2480.286,2316.563,2479.949,2316.364,2479.949z    " name="Layer %{number}" zoom="1" data-layer-id="0150679522801" style="fill: rgb(111, 91, 68); fill-opacity: 1;"></path><path id="_2026380728480" fill="#F19E40" d="M2471.336,1988.123c-34.91-63.73-81.994-120.483-137.828-166.894    c-15.388-12.797-38.965-1.71-34.672,19.391c13.595,66.498,11.678,135.534-6.34,201.066    c-17.145,62.312-49.892,117.294-77.594,175.128c-24.243,50.728-43.818,104.743-42.891,161.703    c0.805,49.968,15.136,99.613,40.515,142.642c23.976,40.607,62.266,85.76,108.944,101.193c1.87,2.516,4.723,4.141,8.617,3.727    c1.212-0.131,2.34-0.27,3.466-0.422c0.675,0.154,1.304,0.383,1.955,0.453c1.687,0.336,3.397-0.301,4.608-1.373    c9.001-1.557,16.262-4.232,24.703-10.957c12.354-9.83,24.045-20.494,35.14-31.697c21.239-21.461,40.354-45.244,57.029-70.416    c32.993-49.798,56.661-106.337,69.512-164.685C2553.335,2224.896,2531.132,2097.251,2471.336,1988.123L2471.336,1988.123z" name="Layer %{number}" zoom="1" data-layer-id="5805454622801" style="fill: rgb(241, 158, 64); fill-opacity: 1;"></path><path id="_2026380728480" fill="#EAD896" d="M2264.557,2357.349c29.895-87.844,115.99-152.142,129.822-243.896    c54.354,71.13,74.886,164.687,66.253,253.772c-6.724,69.243-45.582,261.47-128.005,222.097    C2259.313,2554.322,2241.861,2424.008,2264.557,2357.349z" name="Layer %{number}" zoom="1" data-layer-id="6787376222801" style="fill: rgb(234, 216, 150); fill-opacity: 1;"></path><path id="_2026380728480" fill="#6F5B44" d="M2390.016,2807.218c-1.909-16.484-6.678-25.148-8.641-40.605c-1.955-15.473-3.779-30.883-5.014-46.449    c-2.523-31.742-5.176-63.438-7.377-95.227c-4.432-64.404-23.262-126.449-28.568-190.447c-0.299-3.712-6.033-3.896-5.873-0.047    c2.723,63.187-9.361,126.541-8.166,190.041c0.561,30.371,0.422,60.627,0.085,91.02c-0.177,16.584-0.675,33.092-1.863,49.631    c-0.698,9.736-2.79,17.25-4.501,25.707c-1.219,4.861-1.848,10.082-2.177,15.611c-2.814,47.537,77.378,46.035,72.095,0.768    V2807.218z" name="Layer %{number}" zoom="1" data-layer-id="9471618422801" style="fill: rgb(111, 91, 68); fill-opacity: 1;"></path><path id="_2026380728480" fill="#6F5B44" d="M2868.14,733.632c-171.932,0-324.908,81.043-422.851,207.094c46.273-14.951,95.605-23.079,146.851-23.079    c263.289,0,476.707,213.381,476.707,476.676c0,173.625-92.813,325.545-231.553,408.911c10.221,0.56,20.502,0.897,30.846,0.897    c295.621,0,535.246-239.648,535.246-535.27C3403.386,973.234,3163.761,733.632,2868.14,733.632L2868.14,733.632z" name="Layer %{number}" zoom="1" data-layer-id="7920540622801" style="fill: rgb(111, 91, 68); fill-opacity: 1;"></path><path id="_2026380728480" fill="#6F5B44" d="M1629.345,2349.589c-6.417-1.801-15.596-3.979-26.591-5.965c-5.512-0.966-11.478-1.886-17.795-2.722    c-6.303-0.805-12.958-1.571-19.844-2.139c-3.243-0.284-6.547-0.538-9.875-0.737c-9.944-0.628-17.903-8.595-18.532-18.539    c-0.206-3.327-0.452-6.633-0.728-9.876c-0.584-6.885-1.342-13.54-2.155-19.843c-0.835-6.295-1.756-12.282-2.722-17.765    c-1.955-11.025-4.163-20.203-5.965-26.613c-1.779-6.44-3.152-10.105-3.152-10.105s-1.364,3.665-3.143,10.105    c-1.802,6.41-4.003,15.588-5.966,26.613c-0.966,5.482-1.886,11.47-2.722,17.765c-0.805,6.303-1.571,12.958-2.154,19.843    c-0.276,3.243-0.521,6.525-0.721,9.853c-0.629,9.944-8.596,17.911-18.54,18.54c-3.35,0.199-6.64,0.43-9.875,0.721    c-6.886,0.559-13.54,1.35-19.843,2.131c-6.318,0.836-12.283,1.757-17.772,2.746c-11.019,1.963-20.196,4.163-26.606,5.965    c-6.44,1.778-10.105,3.174-10.105,3.174s3.665,1.395,10.105,3.166c6.41,1.803,15.588,4.025,26.606,5.989    c5.489,0.966,11.454,1.908,17.772,2.744c6.303,0.782,12.957,1.549,19.843,2.14c3.221,0.269,6.502,0.514,9.829,0.713    c9.968,0.613,17.935,8.572,18.54,18.539c0.222,3.328,0.444,6.609,0.743,9.83c0.561,6.885,1.326,13.54,2.14,19.843    c0.828,6.317,1.748,12.283,2.714,17.796c1.979,10.995,4.187,20.18,5.988,26.613c1.779,6.41,3.166,10.075,3.166,10.075    s1.396-3.666,3.175-10.075c1.802-6.434,4.003-15.618,5.988-26.613c0.966-5.513,1.887-11.479,2.722-17.796    c0.813-6.303,1.572-12.958,2.14-19.843c0.284-3.235,0.537-6.525,0.736-9.853c0.605-9.968,8.572-17.934,18.517-18.563    c3.327-0.199,6.608-0.445,9.852-0.713c6.886-0.591,13.541-1.351,19.844-2.162c6.317-0.813,12.283-1.757,17.795-2.723    c10.995-1.955,20.174-4.163,26.591-5.964c6.433-1.749,10.098-3.145,10.098-3.145S1635.777,2351.368,1629.345,2349.589z     M3087.632,2202.125c-8.994-2.516-21.844-5.598-37.279-8.343c-7.713-1.349-16.055-2.652-24.895-3.825    c-8.826-1.104-18.156-2.186-27.787-2.99c-4.547-0.407-9.154-0.744-13.832-1.036c-13.924-0.874-25.086-12.015-25.961-25.961    c-0.291-4.655-0.629-9.285-1.012-13.832c-0.836-9.63-1.887-18.946-3.014-27.786c-1.174-8.841-2.477-17.183-3.826-24.896    c-2.744-15.418-5.828-28.283-8.342-37.277c-2.484-8.979-4.416-14.131-4.416-14.131s-1.932,5.152-4.41,14.131    c-2.514,8.994-5.596,21.859-8.342,37.277c-1.35,7.714-2.66,16.056-3.826,24.896c-1.125,8.84-2.184,18.156-3.012,27.786    c-0.383,4.547-0.721,9.132-1.012,13.786c-0.883,13.954-12.039,25.11-25.984,25.961c-4.654,0.291-9.271,0.629-13.818,1.012    c-9.621,0.813-18.959,1.887-27.777,2.991c-8.84,1.173-17.182,2.476-24.904,3.849c-15.434,2.745-28.275,5.851-37.27,8.373    c-9.002,2.491-14.131,4.431-14.131,4.431s5.129,1.955,14.131,4.455c8.994,2.515,21.836,5.62,37.27,8.365    c7.723,1.372,16.064,2.652,24.904,3.825c8.818,1.121,18.156,2.201,27.777,2.991c4.523,0.406,9.141,0.744,13.771,1.012    c13.947,0.882,25.102,12.038,25.984,25.984c0.291,4.654,0.629,9.247,1.012,13.763c0.813,9.653,1.887,18.97,2.99,27.81    c1.174,8.817,2.477,17.183,3.826,24.88c2.768,15.427,5.85,28.277,8.365,37.271c2.5,9.001,4.455,14.154,4.455,14.154    s1.963-5.152,4.432-14.154c2.545-8.994,5.627-21.844,8.395-37.271c1.35-7.697,2.654-16.063,3.826-24.88    c1.098-8.84,2.178-18.156,2.982-27.81c0.385-4.516,0.729-9.154,1.02-13.809c0.875-13.946,12.008-25.103,25.953-25.984    c4.662-0.291,9.271-0.629,13.795-1.012c9.629-0.813,18.961-1.887,27.787-3.014c8.84-1.15,17.182-2.453,24.895-3.826    c15.436-2.745,28.285-5.826,37.277-8.326c9.002-2.492,14.131-4.424,14.131-4.424s-5.129-1.94-14.131-4.416H3087.632z     M3485.925,2769.833c-6.41-1.803-15.596-4.002-26.613-5.957c-5.514-0.975-11.479-1.918-17.773-2.73    c-6.326-0.805-12.957-1.572-19.844-2.154c-3.234-0.275-6.547-0.521-9.875-0.721c-9.967-0.629-17.902-8.596-18.531-18.539    c-0.207-3.328-0.453-6.633-0.744-9.875c-0.59-6.879-1.357-13.541-2.139-19.844c-0.836-6.318-1.756-12.283-2.744-17.789    c-1.955-11.002-4.141-20.18-5.943-26.613c-1.771-6.41-3.145-10.082-3.145-10.082s-1.395,3.672-3.172,10.082    c-1.779,6.434-3.98,15.611-5.936,26.613c-0.975,5.506-1.916,11.471-2.752,17.789c-0.783,6.303-1.549,12.965-2.133,19.844    c-0.268,3.242-0.521,6.523-0.742,9.828c-0.605,9.969-8.572,17.934-18.541,18.541c-3.326,0.199-6.607,0.443-9.852,0.742    c-6.879,0.561-13.541,1.326-19.859,2.141c-6.303,0.805-12.268,1.754-17.771,2.713c-11.002,1.963-20.182,4.188-26.621,5.988    c-6.402,1.779-10.074,3.174-10.074,3.174s3.672,1.389,10.074,3.174c6.439,1.795,15.619,4.004,26.621,5.98    c5.504,0.967,11.469,1.887,17.771,2.723c6.318,0.783,12.98,1.572,19.859,2.139c3.221,0.293,6.502,0.514,9.83,0.713    c9.943,0.637,17.934,8.596,18.539,18.564c0.199,3.303,0.451,6.592,0.721,9.828c0.582,6.885,1.35,13.541,2.131,19.844    c0.836,6.324,1.779,12.283,2.752,17.771c1.955,11.018,4.18,20.205,5.982,26.613c1.777,6.434,3.172,10.098,3.172,10.098    s1.373-3.664,3.168-10.098c1.801-6.408,4.01-15.596,5.965-26.613c0.99-5.488,1.91-11.447,2.744-17.771    c0.783-6.303,1.572-12.957,2.141-19.844c0.268-3.236,0.514-6.525,0.713-9.875c0.637-9.945,8.594-17.904,18.539-18.531    c3.328-0.209,6.617-0.453,9.852-0.744c6.887-0.568,13.518-1.326,19.844-2.139c6.295-0.838,12.26-1.756,17.773-2.723    c11.018-1.955,20.203-4.164,26.613-5.965c6.432-1.771,10.098-3.145,10.098-3.145S3492.357,2771.589,3485.925,2769.833    L3485.925,2769.833z M1967.855,1418.758c-10.189-2.837-24.766-6.325-42.224-9.446c-8.749-1.534-18.218-3.021-28.23-4.324    c-10.014-1.28-20.579-2.492-31.49-3.42c-5.152-0.444-10.396-0.828-15.68-1.173c-15.795-0.981-28.438-13.609-29.427-29.396    c-0.338-5.306-0.721-10.55-1.174-15.68c-0.92-10.934-2.139-21.507-3.396-31.521c-1.326-10.005-2.791-19.475-4.341-28.208    c-3.104-17.481-6.616-32.071-9.445-42.27c-2.814-10.197-5.015-16.024-5.015-16.024s-2.185,5.827-4.999,16.024    c-2.859,10.198-6.341,24.788-9.445,42.27c-1.557,8.733-3.014,18.203-4.341,28.208c-1.265,10.014-2.477,20.587-3.396,31.521    c-0.452,5.13-0.835,10.344-1.173,15.61c-0.988,15.818-13.632,28.438-29.427,29.427c-5.306,0.338-10.527,0.722-15.68,1.143    c-10.911,0.928-21.483,2.14-31.489,3.405c-10.014,1.326-19.482,2.806-28.23,4.339c-17.482,3.121-32.035,6.633-42.232,9.492    c-10.213,2.829-16.04,5.037-16.04,5.037s5.827,2.201,16.04,5.038c10.197,2.86,24.75,6.371,42.232,9.477    c8.748,1.549,18.217,3.036,28.23,4.362c10.006,1.234,20.578,2.469,31.489,3.374c5.13,0.445,10.351,0.828,15.61,1.165    c15.817,0.967,28.461,13.617,29.45,29.428c0.314,5.289,0.698,10.48,1.15,15.61c0.896,10.933,2.139,21.483,3.396,31.497    c1.304,10.028,2.79,19.475,4.339,28.23c3.105,17.481,6.618,32.034,9.493,42.247c2.813,10.19,5.021,16.017,5.021,16.017    s2.224-5.826,5.037-16.017c2.853-10.213,6.364-24.766,9.492-42.247c1.549-8.756,3.014-18.202,4.34-28.23    c1.258-10.014,2.5-20.564,3.396-31.497c0.452-5.152,0.836-10.366,1.15-15.657c0.989-15.81,13.632-28.453,29.419-29.441    c5.291-0.314,10.512-0.722,15.642-1.15c10.911-0.943,21.477-2.14,31.49-3.42c10.013-1.304,19.481-2.791,28.23-4.34    c17.481-3.105,32.034-6.594,42.224-9.453c10.213-2.807,16.048-4.992,16.048-4.992S1978.068,1421.563,1967.855,1418.758    L1967.855,1418.758z M2571.378,1461.656c-6.434-1.802-15.611-3.979-26.613-5.958c-5.514-0.974-11.479-1.894-17.773-2.722    c-6.324-0.813-12.957-1.557-19.842-2.139c-3.26-0.292-6.541-0.545-9.9-0.744c-9.937-0.629-17.902-8.595-18.508-18.54    c-0.23-3.327-0.453-6.632-0.744-9.875c-0.582-6.886-1.35-13.54-2.139-19.843c-0.828-6.295-1.779-12.283-2.745-17.773    c-1.955-11.018-4.164-20.195-5.942-26.605c-1.771-6.433-3.166-10.105-3.166-10.105s-1.373,3.673-3.152,10.105    c-1.778,6.41-3.979,15.588-5.934,26.605c-0.997,5.49-1.917,11.478-2.753,17.773c-0.782,6.303-1.548,12.957-2.132,19.843    c-0.291,3.243-0.521,6.524-0.744,9.853c-0.604,9.944-8.594,17.911-18.539,18.539c-3.327,0.199-6.632,0.43-9.867,0.721    c-6.893,0.561-13.525,1.35-19.843,2.14c-6.303,0.828-12.268,1.756-17.773,2.737c-11.025,1.963-20.18,4.163-26.613,5.965    c-6.409,1.778-10.104,3.174-10.104,3.174s3.695,1.396,10.104,3.175c6.433,1.794,15.588,4.025,26.613,5.98    c5.506,0.966,11.471,1.909,17.773,2.745c6.317,0.789,12.95,1.549,19.843,2.131c3.235,0.276,6.517,0.521,9.845,0.721    c9.944,0.613,17.911,8.572,18.539,18.54c0.2,3.327,0.453,6.616,0.722,9.829c0.582,6.886,1.349,13.548,2.139,19.844    c0.828,6.324,1.779,12.282,2.745,17.795c1.955,10.995,4.155,20.181,5.957,26.613c1.802,6.41,3.175,10.075,3.175,10.075    s1.395-3.665,3.166-10.075c1.825-6.433,4.033-15.618,5.988-26.613c0.966-5.513,1.917-11.471,2.745-17.795    c0.782-6.296,1.549-12.958,2.14-19.844c0.268-3.235,0.514-6.524,0.713-9.853c0.637-9.967,8.596-17.926,18.539-18.555    c3.328-0.207,6.617-0.452,9.853-0.729c6.885-0.582,13.518-1.341,19.844-2.154c6.295-0.813,12.26-1.756,17.771-2.722    c11.018-1.955,20.18-4.163,26.613-5.966c6.41-1.747,10.098-3.144,10.098-3.144S2577.789,1463.435,2571.378,1461.656    L2571.378,1461.656z" name="Layer %{number}" zoom="1" data-layer-id="0848556122801" style="fill: rgb(111, 91, 68); fill-opacity: 1;"></path></svg></g><g transform="rotate(0 0 0)"><svg viewBoxSize="575" data-root-id="3319441222801" xmlns="http://www.w3.org/2000/svg" y="320" viewBox="0.1899999976158142 0.3500000238418579 301.6099853515625 15.309999465942383" x="124" height="15.309999465942383" width="301.6099853515625" fontUrl="https://fonts.gstatic.com/s/neucha/v17/q5uGsou0JOdh94bvugNsCxVEgA.ttf" zoom="1" editorType="buyer" data-layer-role="slogan" style="position: absolute; top: 320px; width: 301.61px; height: 15.31px; left: 124px;"><g data-horizontal-grow="center" zoom="1" root="[object Object]" style="fill: rgb(111, 91, 68); fill-opacity: 1;"><path d="M0.52 13.54L0.52 13.54L0.78 12.51Q2.39 13.38 3.95 13.38L3.95 13.38Q5.07 13.38 5.85 12.92Q6.64 12.47 6.64 11.45L6.64 11.45Q6.64 10.54 5.97 9.79Q5.31 9.04 4.36 8.46Q3.41 7.89 2.47 7.28Q1.52 6.68 0.85 5.80Q0.19 4.92 0.19 3.84L0.19 3.84Q0.19 2.52 1.13 1.44Q2.08 0.35 3.41 0.35L3.41 0.35Q4.43 0.35 5.69 0.76Q6.94 1.17 7.79 1.58L7.79 1.58L7.57 2.32Q5.46 1.60 4.01 1.60L4.01 1.60Q3.12 1.60 2.49 2.17Q1.86 2.75 1.86 3.66L1.86 3.66Q1.86 4.34 2.21 4.90Q2.56 5.46 3.13 5.86Q3.69 6.27 4.39 6.66Q5.08 7.05 5.77 7.50Q6.46 7.94 7.02 8.46Q7.59 8.98 7.94 9.77Q8.29 10.56 8.29 11.54L8.29 11.54Q8.29 12.93 7.40 13.81Q6.51 14.70 5.08 14.70L5.08 14.70Q3.86 14.70 2.48 14.35Q1.09 14.01 0.52 13.54ZM10.97 8.39L10.97 8.39Q10.97 7.76 10.97 7.43Q10.97 7.11 11.00 6.44Q11.02 5.77 11.07 5.38Q11.12 4.99 11.21 4.37Q11.30 3.75 11.45 3.37Q11.60 2.99 11.79 2.50Q11.99 2.02 12.29 1.73Q12.58 1.43 12.94 1.16Q13.29 0.89 13.77 0.76Q14.25 0.63 14.83 0.63L14.83 0.63Q15.98 0.63 16.83 1.09Q17.69 1.54 18.17 2.23Q18.65 2.91 18.94 3.92Q19.23 4.92 19.31 5.83Q19.39 6.74 19.39 7.83L19.39 7.83Q19.39 8.57 19.36 9.17Q19.34 9.76 19.25 10.51Q19.17 11.26 19.01 11.84Q18.85 12.41 18.58 13.00Q18.30 13.58 17.92 13.96Q17.54 14.34 16.96 14.58Q16.39 14.83 15.68 14.83L15.68 14.83Q14.53 14.83 13.71 14.55Q12.88 14.27 12.35 13.77Q11.82 13.27 11.52 12.45Q11.21 11.63 11.09 10.67Q10.97 9.70 10.97 8.39ZM18.06 8.54L18.06 8.54Q18.06 7.63 17.92 6.64Q17.78 5.66 17.45 4.53Q17.13 3.40 16.42 2.68Q15.72 1.97 14.74 1.97L14.74 1.97Q13.99 1.97 13.43 2.96Q12.86 3.95 12.62 5.19Q12.38 6.42 12.38 7.51L12.38 7.51Q12.38 8.28 12.39 8.67Q12.40 9.07 12.45 9.81Q12.51 10.54 12.61 10.97Q12.71 11.39 12.94 11.95Q13.16 12.51 13.46 12.81Q13.77 13.12 14.26 13.35Q14.75 13.58 15.37 13.60L15.37 13.60Q16.72 13.53 17.39 12.08Q18.06 10.63 18.06 8.54ZM22.90 1.28L22.90 1.28L23.74 1.06Q23.74 1.65 23.76 1.73L23.76 1.73Q24.81 1.02 26.72 1.02L26.72 1.02Q28.78 1.02 29.80 2.31Q30.83 3.60 30.83 5.92L30.83 5.92Q30.83 7.98 29.82 9.33Q28.82 10.69 26.80 10.69L26.80 10.69Q26.46 10.69 24.13 10.46L24.13 10.46Q24.16 11.82 24.28 14.68L24.28 14.68Q24.11 15.25 23.63 15.25L23.63 15.25Q23.29 15.25 22.99 14.98Q22.68 14.71 22.61 14.32L22.61 14.32Q22.66 12.77 22.73 8.26Q22.79 3.75 22.90 1.28ZM23.92 2.97L23.92 2.97L24.07 8.76Q25.09 9.31 26.43 9.31L26.43 9.31Q27.71 9.31 28.60 8.35Q29.49 7.38 29.49 5.99L29.49 5.99Q29.49 4.49 28.56 3.28Q27.63 2.08 26.24 2.08L26.24 2.08Q25.11 2.08 23.92 2.97ZM39.10 1.26L39.10 1.26L40.18 1.04Q40.51 3.66 40.60 8.30Q40.68 12.95 40.77 14.45L40.77 14.45Q40.61 15.03 40.12 15.03L40.12 15.03Q39.79 15.03 39.48 14.75Q39.18 14.47 39.10 14.08L39.10 14.08Q39.12 13.42 39.12 11.86L39.12 11.86L39.12 8.20Q38.71 8.22 37.98 8.28Q37.25 8.35 36.65 8.39Q36.04 8.42 35.50 8.42L35.50 8.42Q35.02 8.42 34.80 8.41L34.80 8.41Q34.84 9.54 34.93 11.61Q35.02 13.67 35.06 14.45L35.06 14.45Q34.89 15.03 34.41 15.03L34.41 15.03Q34.08 15.03 33.77 14.75Q33.46 14.47 33.39 14.08L33.39 14.08Q33.44 12.49 33.49 7.89Q33.54 3.28 33.67 1.04L33.67 1.04L34.50 1.22Q34.50 1.28 34.51 1.40Q34.52 1.52 34.52 1.60L34.52 1.60Q34.76 6.16 34.80 7.31L34.80 7.31Q35.43 7.25 36.14 7.19Q36.86 7.13 37.72 7.04Q38.58 6.96 39.07 6.92L39.07 6.92Q39.09 6.92 39.09 6.74Q39.09 6.55 39.09 5.23Q39.10 3.92 39.10 1.26ZM43.69 14.66L43.69 14.66L43.65 13.75Q45.36 13.47 45.77 13.45L45.77 13.45Q45.79 12.82 45.79 11.56L45.79 11.56Q45.79 9.89 45.71 6.74Q45.64 3.60 45.62 2.58L45.62 2.58L43.75 2.49L43.62 1.41Q44.38 1.43 45.97 1.43L45.97 1.43Q47.60 1.43 48.40 1.45L48.40 1.45L48.46 2.38Q48.14 2.50 47.57 2.53Q46.99 2.56 46.84 2.58L46.84 2.58Q46.90 3.10 46.91 5.20Q46.92 7.29 46.92 9.83Q46.92 12.38 46.96 13.45L46.96 13.45Q47.25 13.51 48.09 13.58Q48.92 13.66 49.13 13.69L49.13 13.69L49.09 14.66Q48.53 14.64 47.33 14.64L47.33 14.64Q46.70 14.64 45.45 14.65Q44.21 14.66 43.69 14.66ZM51.73 13.54L51.73 13.54L51.99 12.51Q53.60 13.38 55.16 13.38L55.16 13.38Q56.27 13.38 57.06 12.92Q57.85 12.47 57.85 11.45L57.85 11.45Q57.85 10.54 57.18 9.79Q56.51 9.04 55.57 8.46Q54.62 7.89 53.68 7.28Q52.73 6.68 52.06 5.80Q51.39 4.92 51.39 3.84L51.39 3.84Q51.39 2.52 52.34 1.44Q53.29 0.35 54.62 0.35L54.62 0.35Q55.64 0.35 56.89 0.76Q58.15 1.17 59.00 1.58L59.00 1.58L58.78 2.32Q56.66 1.60 55.22 1.60L55.22 1.60Q54.32 1.60 53.69 2.17Q53.06 2.75 53.06 3.66L53.06 3.66Q53.06 4.34 53.42 4.90Q53.77 5.46 54.33 5.86Q54.90 6.27 55.60 6.66Q56.29 7.05 56.98 7.50Q57.66 7.94 58.23 8.46Q58.80 8.98 59.15 9.77Q59.50 10.56 59.50 11.54L59.50 11.54Q59.50 12.93 58.61 13.81Q57.72 14.70 56.29 14.70L56.29 14.70Q55.07 14.70 53.68 14.35Q52.30 14.01 51.73 13.54ZM61.58 2.15L61.58 2.15L61.40 1.32L68.48 0.91Q68.95 0.93 69.26 1.24Q69.58 1.56 69.58 1.93L69.58 1.93Q69.58 2.17 69.39 2.36Q69.21 2.54 68.84 2.58L68.84 2.58L65.72 2.41Q66.18 8.96 66.41 14.32L66.41 14.32Q66.24 14.88 65.78 14.88L65.78 14.88Q65.44 14.88 65.13 14.61Q64.81 14.34 64.74 13.95L64.74 13.95Q64.77 12.95 64.77 10.91L64.77 10.91Q64.77 10.15 64.76 8.63Q64.76 7.11 64.76 6.35L64.76 6.35Q64.76 4.14 64.83 2.36L64.83 2.36Q62.73 2.21 61.58 2.15ZM71.73 14.66L71.73 14.66L71.70 13.75Q73.40 13.47 73.81 13.45L73.81 13.45Q73.83 12.82 73.83 11.56L73.83 11.56Q73.83 9.89 73.76 6.74Q73.68 3.60 73.66 2.58L73.66 2.58L71.79 2.49L71.66 1.41Q72.42 1.43 74.02 1.43L74.02 1.43Q75.65 1.43 76.45 1.45L76.45 1.45L76.50 2.38Q76.19 2.50 75.61 2.53Q75.04 2.56 74.89 2.58L74.89 2.58Q74.94 3.10 74.95 5.20Q74.96 7.29 74.96 9.83Q74.96 12.38 75.00 13.45L75.00 13.45Q75.30 13.51 76.13 13.58Q76.97 13.66 77.17 13.69L77.17 13.69L77.13 14.66Q76.58 14.64 75.37 14.64L75.37 14.64Q74.74 14.64 73.50 14.65Q72.25 14.66 71.73 14.66ZM88.51 2.36L88.51 2.36L87.77 3.21Q86.32 2.13 84.91 2.13L84.91 2.13Q83.98 2.13 83.32 2.58Q82.65 3.02 82.30 3.66Q81.96 4.29 81.77 5.25Q81.57 6.22 81.53 6.92Q81.48 7.63 81.48 8.57L81.48 8.57Q81.48 9.50 81.82 10.68Q82.17 11.86 82.98 12.88Q83.80 13.90 84.87 13.90L84.87 13.90Q86.04 13.90 88.46 12.67L88.46 12.67Q88.70 13.03 89.09 13.84L89.09 13.84Q86.75 15.46 84.91 15.46L84.91 15.46Q83.72 15.46 82.74 14.73Q81.76 14.01 81.19 12.90Q80.63 11.78 80.32 10.57Q80.01 9.35 80.01 8.26L80.01 8.26Q80.01 7.05 80.20 5.91Q80.38 4.77 80.83 3.62Q81.27 2.47 82.17 1.76Q83.07 1.06 84.32 1.06L84.32 1.06Q85.39 1.06 86.54 1.43Q87.69 1.80 88.51 2.36ZM95.31 1.15L95.31 1.15L96.72 1.24Q97.23 3.54 98.85 7.75Q100.46 11.95 100.98 14.03L100.98 14.03Q100.98 14.57 100.80 14.83Q100.61 15.10 100.33 15.10L100.33 15.10Q100.09 15.10 99.88 14.91Q99.67 14.71 99.59 14.36L99.59 14.36Q99.42 13.54 98.51 11.10L98.51 11.10Q94.69 10.61 93.71 10.50L93.71 10.50Q93.47 11.17 93.12 12.67Q92.76 14.18 92.56 14.75L92.56 14.75Q92.28 15.08 91.93 15.08L91.93 15.08Q91.54 15.08 91.26 14.74Q90.98 14.40 90.98 13.90L90.98 13.90Q91.58 11.73 93.13 7.51Q94.69 3.30 95.31 1.15ZM95.95 3.02L95.95 3.02Q95.58 5.27 93.89 9.61L93.89 9.61L95.97 9.61Q97.38 9.61 98.33 9.70L98.33 9.70Q96.42 5.60 95.95 3.02ZM101.13 2.15L101.13 2.15L100.95 1.32L108.04 0.91Q108.50 0.93 108.82 1.24Q109.13 1.56 109.13 1.93L109.13 1.93Q109.13 2.17 108.95 2.36Q108.76 2.54 108.39 2.58L108.39 2.58L105.27 2.41Q105.74 8.96 105.96 14.32L105.96 14.32Q105.79 14.88 105.33 14.88L105.33 14.88Q104.99 14.88 104.68 14.61Q104.36 14.34 104.29 13.95L104.29 13.95Q104.33 12.95 104.33 10.91L104.33 10.91Q104.33 10.15 104.32 8.63Q104.31 7.11 104.31 6.35L104.31 6.35Q104.31 4.14 104.38 2.36L104.38 2.36Q102.28 2.21 101.13 2.15ZM111.29 14.66L111.29 14.66L111.25 13.75Q112.96 13.47 113.36 13.45L113.36 13.45Q113.38 12.82 113.38 11.56L113.38 11.56Q113.38 9.89 113.31 6.74Q113.23 3.60 113.22 2.58L113.22 2.58L111.34 2.49L111.21 1.41Q111.97 1.43 113.57 1.43L113.57 1.43Q115.20 1.43 116.00 1.45L116.00 1.45L116.06 2.38Q115.74 2.50 115.16 2.53Q114.59 2.56 114.44 2.58L114.44 2.58Q114.50 3.10 114.51 5.20Q114.52 7.29 114.52 9.83Q114.52 12.38 114.55 13.45L114.55 13.45Q114.85 13.51 115.68 13.58Q116.52 13.66 116.72 13.69L116.72 13.69L116.69 14.66Q116.13 14.64 114.92 14.64L114.92 14.64Q114.29 14.64 113.05 14.65Q111.81 14.66 111.29 14.66ZM119.58 8.39L119.58 8.39Q119.58 7.76 119.58 7.43Q119.58 7.11 119.61 6.44Q119.64 5.77 119.69 5.38Q119.73 4.99 119.82 4.37Q119.92 3.75 120.07 3.37Q120.21 2.99 120.41 2.50Q120.60 2.02 120.90 1.73Q121.20 1.43 121.55 1.16Q121.90 0.89 122.39 0.76Q122.87 0.63 123.44 0.63L123.44 0.63Q124.59 0.63 125.45 1.09Q126.30 1.54 126.78 2.23Q127.27 2.91 127.55 3.92Q127.84 4.92 127.92 5.83Q128.01 6.74 128.01 7.83L128.01 7.83Q128.01 8.57 127.98 9.17Q127.95 9.76 127.87 10.51Q127.78 11.26 127.63 11.84Q127.47 12.41 127.19 13.00Q126.91 13.58 126.53 13.96Q126.15 14.34 125.58 14.58Q125.00 14.83 124.30 14.83L124.30 14.83Q123.15 14.83 122.32 14.55Q121.49 14.27 120.97 13.77Q120.44 13.27 120.13 12.45Q119.82 11.63 119.70 10.67Q119.58 9.70 119.58 8.39ZM126.67 8.54L126.67 8.54Q126.67 7.63 126.53 6.64Q126.39 5.66 126.07 4.53Q125.74 3.40 125.04 2.68Q124.33 1.97 123.35 1.97L123.35 1.97Q122.61 1.97 122.04 2.96Q121.48 3.95 121.23 5.19Q120.99 6.42 120.99 7.51L120.99 7.51Q120.99 8.28 121.00 8.67Q121.01 9.07 121.07 9.81Q121.12 10.54 121.23 10.97Q121.33 11.39 121.55 11.95Q121.77 12.51 122.08 12.81Q122.39 13.12 122.88 13.35Q123.37 13.58 123.98 13.60L123.98 13.60Q125.34 13.53 126.00 12.08Q126.67 10.63 126.67 8.54ZM131.22 14.08L131.22 14.08L131.46 1.24L132.46 1.24L138.53 12.77L138.53 11.30Q138.53 5.70 138.73 1.22L138.73 1.22L139.79 1.43Q140.00 5.46 140.13 14.70L140.13 14.70Q139.74 14.86 139.31 14.86L139.31 14.86Q138.68 14.86 137.99 14.49L137.99 14.49Q136.86 12.75 135.18 9.39Q133.50 6.03 132.80 4.79L132.80 4.79Q132.82 6.05 132.83 9.39Q132.83 12.73 132.89 14.45L132.89 14.45Q132.72 15.03 132.24 15.03L132.24 15.03Q131.91 15.03 131.60 14.75Q131.29 14.47 131.22 14.08ZM150.06 14.66L150.06 14.66L150.02 13.75Q151.73 13.47 152.14 13.45L152.14 13.45Q152.16 12.82 152.16 11.56L152.16 11.56Q152.16 9.89 152.08 6.74Q152.01 3.60 151.99 2.58L151.99 2.58L150.11 2.49L149.98 1.41Q150.75 1.43 152.34 1.43L152.34 1.43Q153.97 1.43 154.77 1.45L154.77 1.45L154.83 2.38Q154.51 2.50 153.94 2.53Q153.36 2.56 153.21 2.58L153.21 2.58Q153.27 3.10 153.28 5.20Q153.29 7.29 153.29 9.83Q153.29 12.38 153.32 13.45L153.32 13.45Q153.62 13.51 154.46 13.58Q155.29 13.66 155.50 13.69L155.50 13.69L155.46 14.66Q154.90 14.64 153.70 14.64L153.70 14.64Q153.07 14.64 151.82 14.65Q150.58 14.66 150.06 14.66ZM158.34 14.08L158.34 14.08L158.58 1.24L159.58 1.24L165.65 12.77L165.65 11.30Q165.65 5.70 165.85 1.22L165.85 1.22L166.91 1.43Q167.11 5.46 167.24 14.70L167.24 14.70Q166.85 14.86 166.43 14.86L166.43 14.86Q165.80 14.86 165.11 14.49L165.11 14.49Q163.98 12.75 162.30 9.39Q160.62 6.03 159.91 4.79L159.91 4.79Q159.93 6.05 159.94 9.39Q159.95 12.73 160.01 14.45L160.01 14.45Q159.84 15.03 159.36 15.03L159.36 15.03Q159.02 15.03 158.72 14.75Q158.41 14.47 158.34 14.08ZM184.56 13.77L184.56 13.77L184.75 14.60Q184.02 14.60 182.12 14.67Q180.22 14.73 179.37 14.73L179.37 14.73Q177.99 14.73 177.49 14.60L177.49 14.60Q177.68 12.56 177.71 7.77Q177.75 2.99 177.96 1.09L177.96 1.09Q178.59 1.15 181.30 1.19Q184.02 1.22 184.86 1.35L184.86 1.35L185.06 2.19Q184.23 2.34 181.72 2.54Q179.22 2.75 179.09 2.76L179.09 2.76Q179.11 3.19 179.17 4.51Q179.24 5.83 179.25 6.68L179.25 6.68Q179.89 6.75 181.56 6.89Q183.23 7.03 183.67 7.07L183.67 7.07L183.86 7.92Q179.94 8.28 179.27 8.29L179.27 8.29Q179.27 9.11 179.25 10.77Q179.22 12.43 179.22 13.21L179.22 13.21Q183.47 13.60 184.56 13.77ZM193.97 1.24L193.97 1.24L195.08 1.30Q195.07 1.34 193.64 7.29Q192.21 13.25 191.69 14.58L191.69 14.58Q191.50 14.62 191.32 14.62L191.32 14.62Q190.80 14.62 190.15 14.49L190.15 14.49Q189.87 13.66 189.51 12.21Q189.15 10.76 188.76 9.00Q188.37 7.24 188.08 5.87Q187.79 4.51 187.48 2.95Q187.16 1.39 187.12 1.24L187.12 1.24L188.18 1.24Q188.92 4.66 190.85 12.19L190.85 12.19Q193.71 1.76 193.97 1.24ZM204.62 13.77L204.62 13.77L204.81 14.60Q204.09 14.60 202.18 14.67Q200.28 14.73 199.43 14.73L199.43 14.73Q198.06 14.73 197.56 14.60L197.56 14.60Q197.74 12.56 197.78 7.77Q197.82 2.99 198.02 1.09L198.02 1.09Q198.65 1.15 201.37 1.19Q204.09 1.22 204.92 1.35L204.92 1.35L205.13 2.19Q204.29 2.34 201.79 2.54Q199.28 2.75 199.15 2.76L199.15 2.76Q199.17 3.19 199.23 4.51Q199.30 5.83 199.32 6.68L199.32 6.68Q199.95 6.75 201.62 6.89Q203.29 7.03 203.73 7.07L203.73 7.07L203.92 7.92Q200.00 8.28 199.34 8.29L199.34 8.29Q199.34 9.11 199.31 10.77Q199.28 12.43 199.28 13.21L199.28 13.21Q203.53 13.60 204.62 13.77ZM216.56 14.90L216.56 14.90L216.86 15.66Q216.02 15.64 215.11 15.12Q214.20 14.60 213.41 13.81Q212.62 13.03 212.00 12.22Q211.38 11.41 210.94 10.63L210.94 10.63L209.47 10.46Q209.51 11.82 209.62 14.68L209.62 14.68Q209.45 15.25 208.97 15.25L208.97 15.25Q208.64 15.25 208.33 14.98Q208.02 14.71 207.95 14.32L207.95 14.32Q208.00 12.77 208.07 8.26Q208.13 3.75 208.25 1.28L208.25 1.28L209.08 1.06Q209.08 1.65 209.10 1.73L209.10 1.73Q210.16 1.02 212.07 1.02L212.07 1.02Q214.13 1.02 215.15 2.31Q216.17 3.60 216.17 5.92L216.17 5.92Q216.17 6.77 215.96 7.56Q215.76 8.35 215.36 9.04Q214.96 9.72 214.26 10.17Q213.55 10.61 212.64 10.69L212.64 10.69Q213.29 12.04 214.39 13.32Q215.48 14.60 216.56 14.90ZM209.27 2.97L209.27 2.97L209.41 8.76Q210.44 9.31 211.77 9.31L211.77 9.31Q213.05 9.31 213.94 8.35Q214.83 7.38 214.83 5.99L214.83 5.99Q214.83 4.49 213.91 3.28Q212.98 2.08 211.59 2.08L211.59 2.08Q210.45 2.08 209.27 2.97ZM225.95 1.19L225.95 1.19L226.97 1.50Q226.80 1.82 226.14 3.27Q225.49 4.73 224.71 6.27Q223.93 7.81 223.19 8.98L223.19 8.98Q223.26 9.89 223.28 11.80Q223.30 13.71 223.35 14.55L223.35 14.55Q223.19 14.58 222.50 14.58L222.50 14.58Q221.85 14.58 221.72 14.55L221.72 14.55Q221.78 13.75 221.80 11.81Q221.83 9.87 221.91 8.98L221.91 8.98Q220.98 7.44 219.84 4.68Q218.70 1.91 218.38 1.26L218.38 1.26L219.62 1.17L222.55 7.48Q222.89 6.88 224.09 4.53Q225.28 2.17 225.95 1.19ZM244.57 2.36L244.57 2.36L243.82 3.21Q242.38 2.13 240.97 2.13L240.97 2.13Q240.04 2.13 239.37 2.58Q238.70 3.02 238.36 3.66Q238.02 4.29 237.82 5.25Q237.63 6.22 237.58 6.92Q237.53 7.63 237.53 8.57L237.53 8.57Q237.53 9.50 237.88 10.68Q238.22 11.86 239.04 12.88Q239.85 13.90 240.93 13.90L240.93 13.90Q242.10 13.90 244.51 12.67L244.51 12.67Q244.75 13.03 245.14 13.84L245.14 13.84Q242.80 15.46 240.97 15.46L240.97 15.46Q239.78 15.46 238.80 14.73Q237.81 14.01 237.25 12.90Q236.68 11.78 236.37 10.57Q236.07 9.35 236.07 8.26L236.07 8.26Q236.07 7.05 236.25 5.91Q236.44 4.77 236.88 3.62Q237.33 2.47 238.23 1.76Q239.13 1.06 240.37 1.06L240.37 1.06Q241.45 1.06 242.60 1.43Q243.75 1.80 244.57 2.36ZM251.36 1.15L251.36 1.15L252.77 1.24Q253.29 3.54 254.90 7.75Q256.52 11.95 257.04 14.03L257.04 14.03Q257.04 14.57 256.85 14.83Q256.67 15.10 256.39 15.10L256.39 15.10Q256.15 15.10 255.93 14.91Q255.72 14.71 255.65 14.36L255.65 14.36Q255.48 13.54 254.57 11.10L254.57 11.10Q250.75 10.61 249.76 10.50L249.76 10.50Q249.52 11.17 249.17 12.67Q248.82 14.18 248.61 14.75L248.61 14.75Q248.34 15.08 247.98 15.08L247.98 15.08Q247.59 15.08 247.32 14.74Q247.04 14.40 247.04 13.90L247.04 13.90Q247.63 11.73 249.19 7.51Q250.75 3.30 251.36 1.15ZM252.01 3.02L252.01 3.02Q251.64 5.27 249.95 9.61L249.95 9.61L252.03 9.61Q253.44 9.61 254.38 9.70L254.38 9.70Q252.47 5.60 252.01 3.02ZM259.49 14.08L259.49 14.08L259.73 1.24L260.73 1.24L266.80 12.77L266.80 11.30Q266.80 5.70 267.00 1.22L267.00 1.22L268.06 1.43Q268.27 5.46 268.40 14.70L268.40 14.70Q268.01 14.86 267.58 14.86L267.58 14.86Q266.95 14.86 266.26 14.49L266.26 14.49Q265.13 12.75 263.45 9.39Q261.77 6.03 261.07 4.79L261.07 4.79Q261.09 6.05 261.10 9.39Q261.10 12.73 261.16 14.45L261.16 14.45Q260.99 15.03 260.51 15.03L260.51 15.03Q260.18 15.03 259.87 14.75Q259.56 14.47 259.49 14.08ZM271.63 14.49L271.63 14.49L271.68 1.09Q275.80 1.13 278.05 3.20Q280.29 5.27 280.29 9.26L280.29 9.26Q280.29 10.54 279.63 11.60Q278.96 12.65 277.91 13.29Q276.86 13.92 275.65 14.26Q274.43 14.60 273.24 14.60L273.24 14.60Q272.50 14.60 271.63 14.49ZM273.02 13.36L273.02 13.36L273.34 13.36Q274.39 13.36 275.38 13.11Q276.36 12.86 277.19 12.36Q278.03 11.86 278.53 10.98Q279.03 10.09 279.03 8.94L279.03 8.94Q279.03 7.38 278.09 5.78Q277.16 4.17 275.83 3.18Q274.50 2.19 273.37 2.19L273.37 2.19Q273.13 2.19 272.91 2.25L272.91 2.25Q272.91 3.36 273.02 13.36ZM283.64 1.30L283.64 1.30L284.75 1.41Q285.03 4.25 285.29 13.10L285.29 13.10Q286.53 13.03 288.44 13.03Q290.35 13.03 291.50 12.97L291.50 12.97Q291.61 13.29 291.66 13.86Q291.71 14.44 291.76 14.71L291.76 14.71Q289.33 14.57 285.57 14.57L285.57 14.57L283.51 14.57Q283.60 11.82 283.61 7.22Q283.62 2.62 283.64 1.30ZM301.30 13.77L301.30 13.77L301.49 14.60Q300.76 14.60 298.86 14.67Q296.96 14.73 296.11 14.73L296.11 14.73Q294.73 14.73 294.23 14.60L294.23 14.60Q294.42 12.56 294.46 7.77Q294.49 2.99 294.70 1.09L294.70 1.09Q295.33 1.15 298.05 1.19Q300.76 1.22 301.60 1.35L301.60 1.35L301.80 2.19Q300.97 2.34 298.46 2.54Q295.96 2.75 295.83 2.76L295.83 2.76Q295.85 3.19 295.91 4.51Q295.98 5.83 296.00 6.68L296.00 6.68Q296.63 6.75 298.30 6.89Q299.97 7.03 300.41 7.07L300.41 7.07L300.60 7.92Q296.68 8.28 296.01 8.29L296.01 8.29Q296.01 9.11 295.99 10.77Q295.96 12.43 295.96 13.21L295.96 13.21Q300.21 13.60 301.30 13.77Z" transform="translate(0, 0)"></path></g></svg></g><g transform="rotate(0 0 0)"><svg viewBoxSize="575" data-root-id="8164987622801" xmlns="http://www.w3.org/2000/svg" y="222.5" viewBox="0.17000001668930054 11.960000038146973 120.13999938964844 84.02999877929688" x="136.695" height="84.02999877929688" width="120.13999938964844" fontUrl="https://fonts.gstatic.com/s/sacramento/v15/buEzpo6gcdjy0EiZMBUG0CoV_NxLeiw.ttf" zoom="1" editorType="buyer" data-layer-role="brandName" style="position: absolute; top: 222.5px; width: 120.14px; height: 84.03px; left: 136.695px;"><g data-horizontal-grow="left" zoom="1" root="[object Object]" style="fill: rgb(111, 91, 68); fill-opacity: 1;"><path d="M42.79 11.96L42.79 11.96Q43.60 11.96 44.20 12.67Q44.81 13.38 44.81 14.42L44.81 14.42Q44.81 15.83 43.68 17.57Q42.55 19.31 40.43 21.19L40.43 21.19Q40.06 23.08 39.79 25.49Q39.52 27.90 39.52 30.96L39.52 30.96Q39.52 35.68 39.22 40.16Q38.91 44.64 38.07 48.58Q37.23 52.52 35.70 55.83Q34.16 59.13 31.69 61.50Q29.21 63.88 25.67 65.21Q22.14 66.54 17.28 66.54L17.28 66.54Q13.24 66.54 10.07 65.60Q6.91 64.65 4.70 62.99Q2.49 61.32 1.33 59.08Q0.17 56.84 0.17 54.21L0.17 54.21Q0.17 51.58 1.28 49.34Q2.39 47.10 4.28 45.43Q6.17 43.77 8.68 42.82Q11.19 41.88 14.02 41.88L14.02 41.88Q14.45 41.88 14.91 41.90Q15.36 41.91 15.73 42.03Q16.10 42.15 16.36 42.43Q16.61 42.72 16.61 43.23L16.61 43.23Q16.61 43.77 16.22 44.12Q15.83 44.47 15.33 44.47L15.33 44.47Q14.99 44.47 14.67 44.46Q14.35 44.44 14.02 44.44L14.02 44.44Q11.72 44.44 9.67 45.18Q7.61 45.92 6.06 47.24Q4.51 48.55 3.60 50.33Q2.70 52.12 2.70 54.21L2.70 54.21Q2.70 56.06 3.37 57.51Q4.04 58.96 5.19 60.05Q6.33 61.15 7.83 61.92Q9.33 62.70 10.98 63.17Q12.63 63.64 14.34 63.86Q16.04 64.08 17.59 64.08L17.59 64.08Q21.87 64.08 24.97 62.87Q28.06 61.66 30.20 59.47Q32.34 57.28 33.66 54.23Q34.97 51.18 35.71 47.49Q36.45 43.80 36.71 39.60Q36.96 35.41 36.99 30.93L36.99 30.93Q37.03 28.77 37.16 26.70Q37.30 24.63 37.53 22.94L37.53 22.94Q36.18 23.65 34.57 24.33Q32.95 25.00 31.32 25.72Q29.68 26.45 28.13 27.27Q26.58 28.10 25.39 29.09Q24.19 30.09 23.47 31.32Q22.74 32.55 22.74 34.06L22.74 34.06Q22.74 35.44 23.21 36.47Q23.69 37.50 24.39 38.21Q25.10 38.91 25.94 39.37Q26.78 39.82 27.51 40.08Q28.23 40.33 28.76 40.45Q29.28 40.56 29.35 40.56L29.35 40.56Q29.92 40.73 30.12 41.02Q30.32 41.31 30.32 41.71L30.32 41.71Q30.32 42.28 29.99 42.64Q29.65 42.99 29.14 42.99L29.14 42.99Q29.08 42.99 28.86 42.97Q28.64 42.96 28.57 42.92L28.57 42.92Q27.46 42.69 26.01 42.10Q24.56 41.51 23.26 40.45Q21.97 39.39 21.07 37.77Q20.18 36.15 20.18 33.83L20.18 33.83Q20.18 31.77 21.19 30.19Q22.20 28.60 23.84 27.36Q25.47 26.11 27.48 25.13Q29.48 24.16 31.47 23.30Q33.46 22.44 35.21 21.63Q36.96 20.82 38.07 19.88L38.07 19.88Q39.01 15.80 40.26 13.88Q41.51 11.96 42.79 11.96ZM48.62 50.33L48.62 50.33Q48.48 51.24 48.28 52.04Q48.08 52.83 47.89 53.42Q47.71 54.01 47.57 54.38Q47.44 54.75 47.40 54.78L47.40 54.78Q47.07 55.56 46.22 55.56L46.22 55.56Q45.75 55.56 45.35 55.20Q44.94 54.85 44.94 54.31L44.94 54.31Q44.94 54.11 45.01 54.01Q45.08 53.91 45.21 53.60Q45.35 53.30 45.55 52.59Q45.75 51.88 46.06 50.40L46.06 50.40Q45.48 50.40 44.88 50.37Q44.27 50.33 43.75 50.13Q43.23 49.93 42.89 49.49Q42.55 49.05 42.55 48.28L42.55 48.28Q42.55 47.71 42.87 46.73Q43.19 45.75 43.73 44.81Q44.27 43.87 44.94 43.18Q45.62 42.48 46.29 42.48L46.29 42.48Q47.07 42.48 47.56 43.06Q48.04 43.63 48.31 44.46Q48.58 45.28 48.70 46.19Q48.82 47.10 48.82 47.77L48.82 47.77Q49.39 47.77 49.95 47.76Q50.50 47.74 51.01 47.74L51.01 47.74Q52.93 47.74 53.94 48.58Q54.95 49.43 54.95 51.35L54.95 51.35Q54.95 52.12 54.85 52.96Q54.75 53.81 54.61 54.70Q54.48 55.59 54.38 56.47Q54.28 57.34 54.28 58.19L54.28 58.19Q54.28 59.40 54.61 60.19Q54.95 60.98 55.46 61.45Q55.96 61.92 56.53 62.11Q57.11 62.30 57.58 62.30L57.58 62.30Q59.03 62.30 60.31 61.35Q61.59 60.41 62.67 59.08Q63.74 57.75 64.60 56.26Q65.46 54.78 66.04 53.67L66.04 53.67Q66.20 53.37 66.51 53.20Q66.81 53.03 67.15 53.03L67.15 53.03Q67.75 53.03 68.09 53.42Q68.43 53.81 68.43 54.28L68.43 54.28Q68.43 54.61 68.29 54.88L68.29 54.88Q67.52 56.26 66.49 58.00Q65.46 59.73 64.15 61.25Q62.83 62.77 61.20 63.81Q59.57 64.86 57.61 64.86L57.61 64.86Q56.40 64.86 55.32 64.40Q54.24 63.95 53.45 63.09Q52.66 62.23 52.19 60.96Q51.72 59.70 51.72 58.12L51.72 58.12Q51.72 56.43 52.05 54.77Q52.39 53.10 52.39 51.58L52.39 51.58Q52.39 50.94 52.10 50.62Q51.82 50.30 50.84 50.30L50.84 50.30Q50.37 50.30 49.81 50.30Q49.26 50.30 48.62 50.33ZM44.88 47.84L46.36 47.84Q46.36 47.61 46.34 47.22Q46.33 46.83 46.28 46.46Q46.22 46.09 46.14 45.82Q46.06 45.55 45.96 45.55L45.96 45.55Q45.85 45.55 45.70 45.80Q45.55 46.06 45.38 46.41Q45.21 46.76 45.08 47.17Q44.94 47.57 44.88 47.84L44.88 47.84ZM78.53 64.65L78.53 64.65Q79.71 63.47 80.93 62.24Q82.14 61.02 83.29 59.67Q84.43 58.32 85.42 56.85Q86.42 55.39 87.19 53.74L87.19 53.74Q87.36 53.37 87.67 53.18Q87.97 53.00 88.34 53.00L88.34 53.00Q88.91 53.00 89.27 53.40Q89.62 53.81 89.62 54.31L89.62 54.31Q89.62 54.58 89.52 54.82L89.52 54.82Q88.47 57.01 87.13 58.83Q85.78 60.64 84.30 62.28Q82.81 63.91 81.30 65.45Q79.78 66.98 78.40 68.53L78.40 68.53Q78.27 70.85 78.40 73.19Q78.53 75.54 78.53 78.16L78.53 78.16Q78.53 80.32 78.40 82.48Q78.27 84.63 77.96 86.60Q77.66 88.57 77.14 90.29Q76.61 92.01 75.81 93.27Q75.00 94.54 73.92 95.26Q72.84 95.99 71.39 95.99L71.39 95.99Q69 95.99 67.72 94.34Q66.44 92.69 66.44 89.72L66.44 89.72Q66.44 88.10 66.79 86.25Q67.15 84.40 67.79 82.43Q68.43 80.46 69.32 78.43Q70.21 76.41 71.26 74.49Q72.30 72.57 73.48 70.84Q74.66 69.10 75.87 67.69L75.87 67.69Q75.94 66.07 76.02 64.33Q76.11 62.60 76.21 61.12L76.21 61.12Q75.33 62.67 74.04 63.61Q72.74 64.55 71.19 64.55L71.19 64.55Q68.63 64.55 67.18 62.83Q65.73 61.12 65.73 58.12L65.73 58.12Q65.73 55.93 66.15 54.13Q66.57 52.32 67.06 51.03Q67.55 49.73 67.96 49.04Q68.36 48.35 68.36 48.38L68.36 48.38Q68.73 47.81 69.40 47.81L69.40 47.81Q69.98 47.81 70.33 48.20Q70.68 48.58 70.68 49.09L70.68 49.09Q70.68 49.46 70.48 49.76L70.48 49.76Q70.52 49.73 70.16 50.32Q69.81 50.91 69.39 52.02Q68.97 53.13 68.61 54.68Q68.26 56.23 68.26 58.08L68.26 58.08Q68.26 59.94 68.93 60.98Q69.61 62.03 71.12 62.03L71.12 62.03Q73.04 62.03 74.59 59.18Q76.14 56.33 77.22 50.91L77.22 50.91Q77.29 50.47 77.63 50.18Q77.96 49.90 78.43 49.90L78.43 49.90Q78.97 49.90 79.34 50.27Q79.71 50.64 79.71 51.18L79.71 51.18Q79.71 51.28 79.58 52.37Q79.44 53.47 79.26 55.29Q79.07 57.11 78.87 59.52Q78.67 61.92 78.53 64.65ZM75.84 71.80L75.84 71.80Q74.32 73.99 73.06 76.41Q71.80 78.84 70.89 81.23Q69.98 83.62 69.47 85.81Q68.97 88.00 68.97 89.72L68.97 89.72Q68.97 91.47 69.54 92.47Q70.11 93.46 71.36 93.46L71.36 93.46Q72.47 93.46 73.33 92.36Q74.19 91.27 74.78 89.25Q75.37 87.23 75.67 84.35Q75.97 81.47 75.97 77.89L75.97 77.89Q75.97 76.45 75.92 74.96Q75.87 73.48 75.84 71.80ZM94.67 61.15L94.67 61.15Q95.21 60.04 95.92 58.71Q96.63 57.38 97.44 56.01Q98.24 54.65 99.14 53.30Q100.03 51.95 101.01 50.74L101.01 50.74Q101.98 49.56 102.98 49.04Q103.97 48.52 104.85 48.52L104.85 48.52Q106.60 48.52 107.44 49.80Q108.28 51.08 108.28 52.96L108.28 52.96Q108.28 53.40 108.23 54.02Q108.18 54.65 108.13 55.35Q108.08 56.06 108.03 56.79Q107.98 57.51 107.98 58.15L107.98 58.15Q107.98 58.96 108.07 59.70Q108.15 60.44 108.39 61.00Q108.62 61.55 109.06 61.87Q109.50 62.19 110.20 62.19L110.20 62.19Q111.48 62.19 112.70 61.20Q113.91 60.21 114.94 58.84Q115.97 57.48 116.72 56.06Q117.48 54.65 117.85 53.77L117.85 53.77Q118.02 53.40 118.34 53.20Q118.66 53.00 119.03 53.00L119.03 53.00Q119.60 53.00 119.96 53.42Q120.31 53.84 120.31 54.31L120.31 54.31Q120.31 54.55 120.21 54.78L120.21 54.78Q120.08 55.05 119.67 55.89Q119.27 56.74 118.61 57.83Q117.95 58.93 117.08 60.16Q116.20 61.39 115.14 62.40Q114.08 63.41 112.85 64.08Q111.62 64.75 110.27 64.75L110.27 64.75Q108.76 64.75 107.81 64.17Q106.87 63.58 106.33 62.62Q105.79 61.66 105.61 60.49Q105.42 59.33 105.42 58.15L105.42 58.15Q105.42 57.65 105.47 57.01Q105.52 56.37 105.61 55.66Q105.69 54.95 105.74 54.24Q105.79 53.54 105.79 52.90L105.79 52.90Q105.79 51.82 105.45 51.43Q105.12 51.04 104.85 51.04L104.85 51.04Q104.31 51.04 103.62 51.67Q102.93 52.29 102.17 53.30Q101.41 54.31 100.62 55.57Q99.83 56.84 99.14 58.08Q98.45 59.33 97.86 60.46Q97.27 61.59 96.93 62.33L96.93 62.33Q96.26 63.74 95.58 64.23Q94.91 64.72 94.20 64.72L94.20 64.72Q93.22 64.72 92.63 64.13Q92.04 63.54 92.04 62.46L92.04 62.46Q92.04 62.23 92.11 61.54Q92.18 60.85 92.28 59.89Q92.38 58.93 92.48 57.81Q92.58 56.70 92.69 55.61Q92.79 54.51 92.85 53.57Q92.92 52.63 92.92 51.99L92.92 51.99Q92.92 51.14 92.85 50.37Q92.79 49.59 92.58 49.43L92.58 49.43Q92.28 49.53 91.51 50.69Q90.73 51.85 89.52 54.78L89.52 54.78Q89.35 55.15 89.01 55.35Q88.68 55.56 88.31 55.56L88.31 55.56Q87.73 55.56 87.40 55.17Q87.06 54.78 87.06 54.28L87.06 54.28Q87.06 54.04 87.16 53.77L87.16 53.77Q88.68 50.17 90.01 48.47Q91.34 46.76 92.65 46.76L92.65 46.76Q93.43 46.76 93.97 47.15Q94.50 47.54 94.82 48.18Q95.14 48.82 95.30 49.59Q95.45 50.37 95.45 51.18L95.45 51.18Q95.45 51.78 95.36 53.06Q95.28 54.34 95.14 55.81Q95.01 57.28 94.89 58.72Q94.77 60.17 94.67 61.15Z" transform="translate(0, 0)"></path></g></svg></g></svg>